# xmcd
#
# Track frame offsets:
#	150
#	15189
#	21835
#	22848
#	44061
#	72388
#	85307
#	91227
#	111023
#	120734
#	131867
#	143069
#	159977
#	161744
#	172426
#	174485
#	184761
#
# Disc length: 2720 seconds
#
# Revision: 2
# Processed by: cddbd v1.5.2PL0 Copyright (c) Steve Scherf et al.
# Submitted via: audiograbber 1.83.01
#
DISCID=e30a9e11
DTITLE=Jiri Slitr - Slitr zpiva Slitra [CD3) - Dabel s Vinohrad I
DYEAR=2014
DGENRE=
TTITLE0=Ja ti dam cigaro, ty tabaku jeden
TTITLE1=Chovam doma medveda
TTITLE2=Teprve ctyri minuty
TTITLE3=Tri tety
TTITLE4=Rikal jsem, ze jsem nikdy nechodil na hodiny piana
TTITLE5=V potoce se voda toci
TTITLE6=Kdyz jsme si probrali odchod
TTITLE7=Akvarium
TTITLE8=O pozaru byla rec
TTITLE9=Sneci fox
TTITLE10=Ovsem, nejhorsi pohroma je valka
TTITLE11=Kdyz vojak jede do boje
TTITLE12=Pak jsou jeste hroznejsi katastrofy
TTITLE13=Nikdy nic nikdo nema
TTITLE14=Ja si jeste vzpominam na jednu katastrofu
TTITLE15=Teple pradlo
TTITLE16=Slecna v sedme rade
EXTD=
EXTT0=
EXTT1=
EXTT2=
EXTT3=
EXTT4=
EXTT5=
EXTT6=
EXTT7=
EXTT8=
EXTT9=
EXTT10=
EXTT11=
EXTT12=
EXTT13=
EXTT14=
EXTT15=
EXTT16=
PLAYORDER=
